<mxfile host="app.diagrams.net" modified="2022-11-18T23:25:14.991Z" agent="5.0 (Macintosh; Intel Mac OS X 10_15_7) AppleWebKit/605.1.15 (KHTML, like Gecko) Version/16.1 Safari/605.1.15" etag="_Bc3MwHl_R7m1tizabL8" version="20.5.3" type="github">
  <diagram id="R2lEEEUBdFMjLlhIrx00" name="Page-1">
    <mxGraphModel dx="1167" dy="478" grid="1" gridSize="10" guides="1" tooltips="1" connect="1" arrows="1" fold="1" page="1" pageScale="1" pageWidth="850" pageHeight="1100" math="0" shadow="0" extFonts="Permanent Marker^https://fonts.googleapis.com/css?family=Permanent+Marker">
      <root>
        <mxCell id="0" />
        <mxCell id="1" parent="0" />
        <mxCell id="aG9_IfBSH0ol4kUv04LN-1" value="ART_OBJECT" style="rounded=0;whiteSpace=wrap;html=1;" vertex="1" parent="1">
          <mxGeometry x="170" y="110" width="90" height="20" as="geometry" />
        </mxCell>
        <mxCell id="aG9_IfBSH0ol4kUv04LN-3" value="ID_no" style="ellipse;whiteSpace=wrap;html=1;align=center;fontStyle=4;" vertex="1" parent="1">
          <mxGeometry x="190" y="70" width="50" height="20" as="geometry" />
        </mxCell>
        <mxCell id="aG9_IfBSH0ol4kUv04LN-4" value="Artist" style="ellipse;whiteSpace=wrap;html=1;" vertex="1" parent="1">
          <mxGeometry x="250" y="80" width="40" height="20" as="geometry" />
        </mxCell>
        <mxCell id="aG9_IfBSH0ol4kUv04LN-5" value="Year" style="ellipse;whiteSpace=wrap;html=1;align=center;" vertex="1" parent="1">
          <mxGeometry x="280" y="110" width="40" height="20" as="geometry" />
        </mxCell>
        <mxCell id="aG9_IfBSH0ol4kUv04LN-6" value="Title" style="ellipse;whiteSpace=wrap;html=1;" vertex="1" parent="1">
          <mxGeometry x="150" y="80" width="30" height="20" as="geometry" />
        </mxCell>
        <mxCell id="aG9_IfBSH0ol4kUv04LN-8" value="Description" style="ellipse;whiteSpace=wrap;html=1;" vertex="1" parent="1">
          <mxGeometry x="80" y="110" width="80" height="20" as="geometry" />
        </mxCell>
        <mxCell id="aG9_IfBSH0ol4kUv04LN-10" value="" style="endArrow=none;html=1;rounded=0;exitX=1;exitY=0.5;exitDx=0;exitDy=0;entryX=0;entryY=0.5;entryDx=0;entryDy=0;" edge="1" parent="1" source="aG9_IfBSH0ol4kUv04LN-8" target="aG9_IfBSH0ol4kUv04LN-1">
          <mxGeometry width="50" height="50" relative="1" as="geometry">
            <mxPoint x="140" y="260" as="sourcePoint" />
            <mxPoint x="190" y="210" as="targetPoint" />
          </mxGeometry>
        </mxCell>
        <mxCell id="aG9_IfBSH0ol4kUv04LN-11" value="" style="endArrow=none;html=1;rounded=0;entryX=1;entryY=1;entryDx=0;entryDy=0;exitX=0.163;exitY=0.058;exitDx=0;exitDy=0;exitPerimeter=0;" edge="1" parent="1" source="aG9_IfBSH0ol4kUv04LN-1" target="aG9_IfBSH0ol4kUv04LN-6">
          <mxGeometry width="50" height="50" relative="1" as="geometry">
            <mxPoint x="140" y="260" as="sourcePoint" />
            <mxPoint x="190" y="210" as="targetPoint" />
          </mxGeometry>
        </mxCell>
        <mxCell id="aG9_IfBSH0ol4kUv04LN-12" value="" style="endArrow=none;html=1;rounded=0;entryX=0.5;entryY=1;entryDx=0;entryDy=0;exitX=0.5;exitY=0;exitDx=0;exitDy=0;" edge="1" parent="1" source="aG9_IfBSH0ol4kUv04LN-1" target="aG9_IfBSH0ol4kUv04LN-3">
          <mxGeometry width="50" height="50" relative="1" as="geometry">
            <mxPoint x="140" y="260" as="sourcePoint" />
            <mxPoint x="190" y="210" as="targetPoint" />
          </mxGeometry>
        </mxCell>
        <mxCell id="aG9_IfBSH0ol4kUv04LN-13" value="" style="endArrow=none;html=1;rounded=0;entryX=0;entryY=1;entryDx=0;entryDy=0;exitX=0.75;exitY=0;exitDx=0;exitDy=0;" edge="1" parent="1" source="aG9_IfBSH0ol4kUv04LN-1" target="aG9_IfBSH0ol4kUv04LN-4">
          <mxGeometry width="50" height="50" relative="1" as="geometry">
            <mxPoint x="140" y="260" as="sourcePoint" />
            <mxPoint x="190" y="210" as="targetPoint" />
          </mxGeometry>
        </mxCell>
        <mxCell id="aG9_IfBSH0ol4kUv04LN-14" value="" style="endArrow=none;html=1;rounded=0;entryX=0;entryY=0.5;entryDx=0;entryDy=0;exitX=1;exitY=0.5;exitDx=0;exitDy=0;" edge="1" parent="1" source="aG9_IfBSH0ol4kUv04LN-1" target="aG9_IfBSH0ol4kUv04LN-5">
          <mxGeometry width="50" height="50" relative="1" as="geometry">
            <mxPoint x="140" y="260" as="sourcePoint" />
            <mxPoint x="190" y="210" as="targetPoint" />
          </mxGeometry>
        </mxCell>
        <mxCell id="aG9_IfBSH0ol4kUv04LN-15" value="PAINTING" style="rounded=0;whiteSpace=wrap;html=1;" vertex="1" parent="1">
          <mxGeometry x="80" y="170" width="70" height="20" as="geometry" />
        </mxCell>
        <mxCell id="aG9_IfBSH0ol4kUv04LN-16" value="SCULPTURE" style="rounded=0;whiteSpace=wrap;html=1;" vertex="1" parent="1">
          <mxGeometry x="300" y="170" width="80" height="20" as="geometry" />
        </mxCell>
        <mxCell id="aG9_IfBSH0ol4kUv04LN-17" value="STATUE" style="rounded=0;whiteSpace=wrap;html=1;" vertex="1" parent="1">
          <mxGeometry x="190" y="170" width="60" height="20" as="geometry" />
        </mxCell>
        <mxCell id="aG9_IfBSH0ol4kUv04LN-18" value="Paint_type" style="ellipse;whiteSpace=wrap;html=1;" vertex="1" parent="1">
          <mxGeometry x="90" y="210" width="70" height="20" as="geometry" />
        </mxCell>
        <mxCell id="aG9_IfBSH0ol4kUv04LN-19" value="Paint_style" style="ellipse;whiteSpace=wrap;html=1;" vertex="1" parent="1">
          <mxGeometry x="-10" y="170" width="75" height="20" as="geometry" />
        </mxCell>
        <mxCell id="aG9_IfBSH0ol4kUv04LN-20" value="Drawn_on" style="ellipse;whiteSpace=wrap;html=1;" vertex="1" parent="1">
          <mxGeometry x="20" y="200" width="70" height="20" as="geometry" />
        </mxCell>
        <mxCell id="aG9_IfBSH0ol4kUv04LN-21" value="" style="endArrow=none;html=1;rounded=0;exitX=1;exitY=0.5;exitDx=0;exitDy=0;entryX=0;entryY=0.5;entryDx=0;entryDy=0;" edge="1" parent="1" source="aG9_IfBSH0ol4kUv04LN-19" target="aG9_IfBSH0ol4kUv04LN-15">
          <mxGeometry width="50" height="50" relative="1" as="geometry">
            <mxPoint x="140" y="270" as="sourcePoint" />
            <mxPoint x="190" y="220" as="targetPoint" />
          </mxGeometry>
        </mxCell>
        <mxCell id="aG9_IfBSH0ol4kUv04LN-22" value="" style="endArrow=none;html=1;rounded=0;exitX=0.781;exitY=0.017;exitDx=0;exitDy=0;exitPerimeter=0;entryX=0;entryY=1;entryDx=0;entryDy=0;" edge="1" parent="1" source="aG9_IfBSH0ol4kUv04LN-20" target="aG9_IfBSH0ol4kUv04LN-15">
          <mxGeometry width="50" height="50" relative="1" as="geometry">
            <mxPoint x="140" y="270" as="sourcePoint" />
            <mxPoint x="190" y="220" as="targetPoint" />
          </mxGeometry>
        </mxCell>
        <mxCell id="aG9_IfBSH0ol4kUv04LN-23" value="" style="endArrow=none;html=1;rounded=0;entryX=0.5;entryY=1;entryDx=0;entryDy=0;exitX=0.364;exitY=0.058;exitDx=0;exitDy=0;exitPerimeter=0;" edge="1" parent="1" source="aG9_IfBSH0ol4kUv04LN-18" target="aG9_IfBSH0ol4kUv04LN-15">
          <mxGeometry width="50" height="50" relative="1" as="geometry">
            <mxPoint x="140" y="270" as="sourcePoint" />
            <mxPoint x="190" y="220" as="targetPoint" />
          </mxGeometry>
        </mxCell>
        <mxCell id="aG9_IfBSH0ol4kUv04LN-24" value="Material" style="ellipse;whiteSpace=wrap;html=1;" vertex="1" parent="1">
          <mxGeometry x="400" y="170" width="50" height="20" as="geometry" />
        </mxCell>
        <mxCell id="aG9_IfBSH0ol4kUv04LN-25" value="Height" style="ellipse;whiteSpace=wrap;html=1;" vertex="1" parent="1">
          <mxGeometry x="380" y="200" width="50" height="20" as="geometry" />
        </mxCell>
        <mxCell id="aG9_IfBSH0ol4kUv04LN-26" value="Weight" style="ellipse;whiteSpace=wrap;html=1;" vertex="1" parent="1">
          <mxGeometry x="320" y="210" width="50" height="20" as="geometry" />
        </mxCell>
        <mxCell id="aG9_IfBSH0ol4kUv04LN-27" value="Sculp_style" style="ellipse;whiteSpace=wrap;html=1;" vertex="1" parent="1">
          <mxGeometry x="355" y="140" width="70" height="20" as="geometry" />
        </mxCell>
        <mxCell id="aG9_IfBSH0ol4kUv04LN-28" value="" style="endArrow=none;html=1;rounded=0;entryX=0.5;entryY=1;entryDx=0;entryDy=0;exitX=0.393;exitY=0.1;exitDx=0;exitDy=0;exitPerimeter=0;" edge="1" parent="1" source="aG9_IfBSH0ol4kUv04LN-26" target="aG9_IfBSH0ol4kUv04LN-16">
          <mxGeometry width="50" height="50" relative="1" as="geometry">
            <mxPoint x="300" y="310" as="sourcePoint" />
            <mxPoint x="350" y="260" as="targetPoint" />
          </mxGeometry>
        </mxCell>
        <mxCell id="aG9_IfBSH0ol4kUv04LN-29" value="" style="endArrow=none;html=1;rounded=0;entryX=1;entryY=1;entryDx=0;entryDy=0;exitX=0;exitY=0;exitDx=0;exitDy=0;" edge="1" parent="1" source="aG9_IfBSH0ol4kUv04LN-25" target="aG9_IfBSH0ol4kUv04LN-16">
          <mxGeometry width="50" height="50" relative="1" as="geometry">
            <mxPoint x="300" y="310" as="sourcePoint" />
            <mxPoint x="350" y="260" as="targetPoint" />
          </mxGeometry>
        </mxCell>
        <mxCell id="aG9_IfBSH0ol4kUv04LN-30" value="" style="endArrow=none;html=1;rounded=0;entryX=1;entryY=0.5;entryDx=0;entryDy=0;exitX=0;exitY=0.5;exitDx=0;exitDy=0;" edge="1" parent="1" source="aG9_IfBSH0ol4kUv04LN-24" target="aG9_IfBSH0ol4kUv04LN-16">
          <mxGeometry width="50" height="50" relative="1" as="geometry">
            <mxPoint x="300" y="310" as="sourcePoint" />
            <mxPoint x="350" y="260" as="targetPoint" />
          </mxGeometry>
        </mxCell>
        <mxCell id="aG9_IfBSH0ol4kUv04LN-31" value="" style="endArrow=none;html=1;rounded=0;entryX=0.305;entryY=1.017;entryDx=0;entryDy=0;entryPerimeter=0;exitX=0.85;exitY=0.058;exitDx=0;exitDy=0;exitPerimeter=0;" edge="1" parent="1" source="aG9_IfBSH0ol4kUv04LN-16" target="aG9_IfBSH0ol4kUv04LN-27">
          <mxGeometry width="50" height="50" relative="1" as="geometry">
            <mxPoint x="300" y="310" as="sourcePoint" />
            <mxPoint x="350" y="260" as="targetPoint" />
          </mxGeometry>
        </mxCell>
        <mxCell id="aG9_IfBSH0ol4kUv04LN-32" value="OTHER" style="rounded=0;whiteSpace=wrap;html=1;" vertex="1" parent="1">
          <mxGeometry x="190" y="260" width="50" height="20" as="geometry" />
        </mxCell>
        <mxCell id="aG9_IfBSH0ol4kUv04LN-33" value="Type" style="ellipse;whiteSpace=wrap;html=1;" vertex="1" parent="1">
          <mxGeometry x="180" y="300" width="30" height="20" as="geometry" />
        </mxCell>
        <mxCell id="aG9_IfBSH0ol4kUv04LN-35" value="Style" style="ellipse;whiteSpace=wrap;html=1;" vertex="1" parent="1">
          <mxGeometry x="215" y="300" width="35" height="20" as="geometry" />
        </mxCell>
        <mxCell id="aG9_IfBSH0ol4kUv04LN-36" value="" style="endArrow=none;html=1;rounded=0;exitX=0.5;exitY=0;exitDx=0;exitDy=0;entryX=0.393;entryY=1.058;entryDx=0;entryDy=0;entryPerimeter=0;" edge="1" parent="1" source="aG9_IfBSH0ol4kUv04LN-33" target="aG9_IfBSH0ol4kUv04LN-32">
          <mxGeometry width="50" height="50" relative="1" as="geometry">
            <mxPoint x="230" y="310" as="sourcePoint" />
            <mxPoint x="280" y="260" as="targetPoint" />
          </mxGeometry>
        </mxCell>
        <mxCell id="aG9_IfBSH0ol4kUv04LN-37" value="" style="endArrow=none;html=1;rounded=0;exitX=0.5;exitY=0;exitDx=0;exitDy=0;entryX=0.643;entryY=1.1;entryDx=0;entryDy=0;entryPerimeter=0;" edge="1" parent="1" source="aG9_IfBSH0ol4kUv04LN-35" target="aG9_IfBSH0ol4kUv04LN-32">
          <mxGeometry width="50" height="50" relative="1" as="geometry">
            <mxPoint x="230" y="310" as="sourcePoint" />
            <mxPoint x="280" y="260" as="targetPoint" />
          </mxGeometry>
        </mxCell>
      </root>
    </mxGraphModel>
  </diagram>
</mxfile>
